<svg width="198" height="56" viewBox="0 0 198 56" fill="none" xmlns="http://www.w3.org/2000/svg">
<path d="M18.5269 19.6667V51.4197C18.5269 52.9846 16.8108 53.9433 15.4782 53.1228L3.95135 46.025C3.36011 45.661 3 45.0163 3 44.322V14.3561C3 12.8266 4.64694 11.8632 5.98014 12.6127L18.5269 19.6667ZM18.5269 19.6667L24.9024 23.4502C25.5095 23.8105 25.8817 24.4642 25.8817 25.1701V36.6121C25.8817 38.1426 27.5306 39.1059 28.8638 38.3544L39.9821 32.0875C40.611 31.733 41 31.0671 41 30.3452V16.0449C41 15.3283 40.6166 14.6664 39.9949 14.3099L21.5218 3.71728C20.1884 2.95274 18.5269 3.91532 18.5269 5.45229V19.6667Z" stroke="#3A3A3A" stroke-width="5"/>
<path d="M65.4089 35.0605C65.4089 35.7871 65.2683 36.4727 64.987 37.1172C64.7175 37.7617 64.3425 38.3242 63.862 38.8047C63.3816 39.2852 62.8191 39.666 62.1745 39.9473C61.53 40.2168 60.8445 40.3516 60.1179 40.3516H59.573C58.7644 40.3516 58.0144 40.1875 57.323 39.8594C56.6316 39.5312 56.0398 39.0742 55.5476 38.4883V47.207H53.3855V22H54.1062L55.2839 23.8281C55.7761 23.1602 56.3913 22.6328 57.1296 22.2461C57.8796 21.8477 58.6941 21.6484 59.573 21.6484H60.1179C60.8445 21.6484 61.53 21.7891 62.1745 22.0703C62.8191 22.3398 63.3816 22.7148 63.862 23.1953C64.3425 23.6758 64.7175 24.2383 64.987 24.8828C65.2683 25.5273 65.4089 26.2129 65.4089 26.9395V35.0605ZM63.2468 26.8164C63.2468 26.3828 63.1648 25.9785 63.0007 25.6035C62.8366 25.2168 62.614 24.8828 62.3327 24.6016C62.0515 24.3203 61.7175 24.0977 61.3308 23.9336C60.9558 23.7695 60.5515 23.6875 60.1179 23.6875H58.6765C58.2429 23.6875 57.8327 23.7695 57.446 23.9336C57.071 24.0977 56.7429 24.3203 56.4616 24.6016C56.1804 24.8828 55.9577 25.2168 55.7937 25.6035C55.6296 25.9785 55.5476 26.3828 55.5476 26.8164V35.1836C55.5476 35.6172 55.6296 36.0273 55.7937 36.4141C55.9577 36.7891 56.1804 37.1172 56.4616 37.3984C56.7429 37.6797 57.071 37.9023 57.446 38.0664C57.8327 38.2305 58.2429 38.3125 58.6765 38.3125H60.1179C60.5515 38.3125 60.9558 38.2305 61.3308 38.0664C61.7175 37.9023 62.0515 37.6797 62.3327 37.3984C62.614 37.1172 62.8366 36.7891 63.0007 36.4141C63.1648 36.0273 63.2468 35.6172 63.2468 35.1836V26.8164ZM73.9441 24.0566C73.5105 24.0566 73.1004 24.1387 72.7137 24.3027C72.3387 24.4668 72.0105 24.6895 71.7293 24.9707C71.448 25.252 71.2254 25.5859 71.0613 25.9727C70.8973 26.3477 70.8152 26.752 70.8152 27.1855V40H68.6531V22H69.3738L70.5516 23.8281C71.0437 23.1602 71.659 22.6328 72.3973 22.2461C73.1473 21.8477 73.9617 21.6484 74.8406 21.6484H76.1062V24.0566H73.9441ZM89.9325 35.0605C89.9325 35.7871 89.7919 36.4727 89.5106 37.1172C89.2411 37.7617 88.8661 38.3242 88.3856 38.8047C87.9052 39.2852 87.3427 39.666 86.6981 39.9473C86.0536 40.2168 85.368 40.3516 84.6415 40.3516H83.2001C82.4735 40.3516 81.788 40.2168 81.1434 39.9473C80.4989 39.666 79.9364 39.2852 79.4559 38.8047C78.9755 38.3242 78.5946 37.7617 78.3134 37.1172C78.0438 36.4727 77.9091 35.7871 77.9091 35.0605V26.9395C77.9091 26.2129 78.0438 25.5273 78.3134 24.8828C78.5946 24.2383 78.9755 23.6758 79.4559 23.1953C79.9364 22.7148 80.4989 22.3398 81.1434 22.0703C81.788 21.7891 82.4735 21.6484 83.2001 21.6484H84.6415C85.368 21.6484 86.0536 21.7891 86.6981 22.0703C87.3427 22.3398 87.9052 22.7148 88.3856 23.1953C88.8661 23.6758 89.2411 24.2383 89.5106 24.8828C89.7919 25.5273 89.9325 26.2129 89.9325 26.9395V35.0605ZM87.7704 26.8164C87.7704 26.3828 87.6884 25.9785 87.5243 25.6035C87.3602 25.2168 87.1376 24.8828 86.8563 24.6016C86.5751 24.3203 86.2411 24.0977 85.8544 23.9336C85.4794 23.7695 85.0751 23.6875 84.6415 23.6875H83.2001C82.7665 23.6875 82.3563 23.7695 81.9696 23.9336C81.5946 24.0977 81.2665 24.3203 80.9852 24.6016C80.704 24.8828 80.4813 25.2168 80.3173 25.6035C80.1532 25.9785 80.0712 26.3828 80.0712 26.8164V35.1836C80.0712 35.6172 80.1532 36.0273 80.3173 36.4141C80.4813 36.7891 80.704 37.1172 80.9852 37.3984C81.2665 37.6797 81.5946 37.9023 81.9696 38.0664C82.3563 38.2305 82.7665 38.3125 83.2001 38.3125H84.6415C85.0751 38.3125 85.4794 38.2305 85.8544 38.0664C86.2411 37.9023 86.5751 37.6797 86.8563 37.3984C87.1376 37.1172 87.3602 36.7891 87.5243 36.4141C87.6884 36.0273 87.7704 35.6172 87.7704 35.1836V26.8164ZM105.552 35.4297C105.552 36.1562 105.405 36.8242 105.112 37.4336C104.819 38.0312 104.421 38.5469 103.917 38.9805C103.413 39.4141 102.827 39.7539 102.159 40C101.503 40.2344 100.811 40.3516 100.085 40.3516H98.6435C97.917 40.3516 97.2197 40.2168 96.5517 39.9473C95.8955 39.666 95.3154 39.2852 94.8115 38.8047C94.3193 38.3242 93.9209 37.7617 93.6162 37.1172C93.3232 36.4727 93.1767 35.7871 93.1767 35.0605V34.3398L95.3388 33.9883V35.1836C95.3388 35.6172 95.4267 36.0273 95.6025 36.4141C95.79 36.7891 96.0361 37.1172 96.3408 37.3984C96.6455 37.6797 96.997 37.9023 97.3955 38.0664C97.7939 38.2305 98.2099 38.3125 98.6435 38.3125H100.085C100.519 38.3125 100.935 38.248 101.333 38.1191C101.731 37.9902 102.083 37.8086 102.388 37.5742C102.704 37.3281 102.95 37.0352 103.126 36.6953C103.313 36.3555 103.407 35.9688 103.407 35.5352C103.407 34.8906 103.267 34.3633 102.985 33.9531C102.704 33.543 102.329 33.2031 101.86 32.9336C101.403 32.6523 100.876 32.4238 100.278 32.248C99.6923 32.0605 99.0888 31.8789 98.4677 31.7031C97.8466 31.5156 97.2373 31.3047 96.6396 31.0703C96.0537 30.8359 95.5263 30.5312 95.0576 30.1562C94.6005 29.7695 94.2314 29.2891 93.9502 28.7148C93.6689 28.1406 93.5283 27.4258 93.5283 26.5703C93.5283 25.8438 93.6689 25.1816 93.9502 24.584C94.2314 23.9746 94.6123 23.4531 95.0927 23.0195C95.5732 22.5859 96.1298 22.252 96.7627 22.0176C97.4072 21.7715 98.0927 21.6484 98.8193 21.6484H100.085C100.811 21.6484 101.497 21.7891 102.142 22.0703C102.786 22.3398 103.349 22.7148 103.829 23.1953C104.31 23.6758 104.685 24.2383 104.954 24.8828C105.235 25.5273 105.376 26.2129 105.376 26.9395V27.0098L103.214 27.3613V26.8164C103.214 26.3828 103.132 25.9785 102.968 25.6035C102.804 25.2168 102.581 24.8828 102.3 24.6016C102.019 24.3203 101.685 24.0977 101.298 23.9336C100.923 23.7695 100.519 23.6875 100.085 23.6875H98.8193C98.3857 23.6875 97.9755 23.752 97.5888 23.8809C97.2138 24.0098 96.8857 24.1973 96.6045 24.4434C96.3232 24.6777 96.1005 24.9648 95.9365 25.3047C95.7724 25.6445 95.6904 26.0312 95.6904 26.4648C95.6904 27.0859 95.831 27.5957 96.1123 27.9941C96.3935 28.3809 96.7627 28.709 97.2197 28.9785C97.6884 29.248 98.2158 29.4766 98.8017 29.6641C99.3994 29.8398 100.003 30.0273 100.612 30.2266C101.233 30.4141 101.837 30.6309 102.423 30.877C103.02 31.123 103.548 31.4395 104.005 31.8262C104.474 32.2129 104.849 32.6992 105.13 33.2852C105.411 33.8594 105.552 34.5742 105.552 35.4297ZM120.644 35.0605C120.644 35.7871 120.503 36.4727 120.222 37.1172C119.952 37.7617 119.577 38.3242 119.097 38.8047C118.616 39.2852 118.054 39.666 117.409 39.9473C116.765 40.2168 116.079 40.3516 115.353 40.3516H114.808C113.999 40.3516 113.249 40.1875 112.558 39.8594C111.866 39.5312 111.274 39.0742 110.782 38.4883V47.207H108.62V22H109.341L110.519 23.8281C111.011 23.1602 111.626 22.6328 112.364 22.2461C113.114 21.8477 113.929 21.6484 114.808 21.6484H115.353C116.079 21.6484 116.765 21.7891 117.409 22.0703C118.054 22.3398 118.616 22.7148 119.097 23.1953C119.577 23.6758 119.952 24.2383 120.222 24.8828C120.503 25.5273 120.644 26.2129 120.644 26.9395V35.0605ZM118.481 26.8164C118.481 26.3828 118.399 25.9785 118.235 25.6035C118.071 25.2168 117.849 24.8828 117.567 24.6016C117.286 24.3203 116.952 24.0977 116.565 23.9336C116.19 23.7695 115.786 23.6875 115.353 23.6875H113.911C113.478 23.6875 113.067 23.7695 112.681 23.9336C112.306 24.0977 111.978 24.3203 111.696 24.6016C111.415 24.8828 111.192 25.2168 111.028 25.6035C110.864 25.9785 110.782 26.3828 110.782 26.8164V35.1836C110.782 35.6172 110.864 36.0273 111.028 36.4141C111.192 36.7891 111.415 37.1172 111.696 37.3984C111.978 37.6797 112.306 37.9023 112.681 38.0664C113.067 38.2305 113.478 38.3125 113.911 38.3125H115.353C115.786 38.3125 116.19 38.2305 116.565 38.0664C116.952 37.9023 117.286 37.6797 117.567 37.3984C117.849 37.1172 118.071 36.7891 118.235 36.4141C118.399 36.0273 118.481 35.6172 118.481 35.1836V26.8164ZM135.911 35.0605C135.911 35.7871 135.771 36.4727 135.489 37.1172C135.22 37.7617 134.845 38.3242 134.364 38.8047C133.884 39.2852 133.321 39.666 132.677 39.9473C132.032 40.2168 131.347 40.3516 130.62 40.3516H129.179C128.452 40.3516 127.767 40.2168 127.122 39.9473C126.478 39.666 125.915 39.2852 125.435 38.8047C124.954 38.3242 124.573 37.7617 124.292 37.1172C124.023 36.4727 123.888 35.7871 123.888 35.0605V26.9395C123.888 26.2129 124.023 25.5273 124.292 24.8828C124.573 24.2383 124.954 23.6758 125.435 23.1953C125.915 22.7148 126.478 22.3398 127.122 22.0703C127.767 21.7891 128.452 21.6484 129.179 21.6484H130.62C131.347 21.6484 132.032 21.7891 132.677 22.0703C133.321 22.3398 133.884 22.7148 134.364 23.1953C134.845 23.6758 135.22 24.2383 135.489 24.8828C135.771 25.5273 135.911 26.2129 135.911 26.9395V31.1758H126.05V35.1836C126.05 35.6172 126.132 36.0273 126.296 36.4141C126.46 36.7891 126.683 37.1172 126.964 37.3984C127.245 37.6797 127.573 37.9023 127.948 38.0664C128.335 38.2305 128.745 38.3125 129.179 38.3125H130.62C131.054 38.3125 131.458 38.2305 131.833 38.0664C132.22 37.9023 132.554 37.6797 132.835 37.3984C133.116 37.1172 133.339 36.7891 133.503 36.4141C133.667 36.0273 133.749 35.6172 133.749 35.1836V33.9883L135.911 34.3398V35.0605ZM133.749 26.8164C133.749 26.3828 133.667 25.9785 133.503 25.6035C133.339 25.2168 133.116 24.8828 132.835 24.6016C132.554 24.3203 132.22 24.0977 131.833 23.9336C131.458 23.7695 131.054 23.6875 130.62 23.6875H129.179C128.745 23.6875 128.335 23.7695 127.948 23.9336C127.573 24.0977 127.245 24.3203 126.964 24.6016C126.683 24.8828 126.46 25.2168 126.296 25.6035C126.132 25.9785 126.05 26.3828 126.05 26.8164V29.4883H133.749V26.8164ZM149.808 40L142.46 31L149.808 22H152.62L145.097 31L152.62 40H149.808ZM139.876 40V14.793H142.038V40H139.876ZM160.98 40C160.324 40 159.702 39.877 159.116 39.6309C158.542 39.3848 158.038 39.0449 157.605 38.6113C157.183 38.1777 156.843 37.6738 156.585 37.0996C156.339 36.5254 156.216 35.9102 156.216 35.2539V24.0566H152.982V22H156.216V17.6758L158.378 17.3242V22H162.949V24.0566H158.378V35.3594C158.378 35.7227 158.443 36.0625 158.572 36.3789C158.712 36.6836 158.9 36.9531 159.134 37.1875C159.368 37.4219 159.644 37.6094 159.96 37.75C160.277 37.8789 160.616 37.9434 160.98 37.9434H162.949V40H160.98Z" fill="#3A3A3A"/>
</svg>
