<svg width="44" height="56" viewBox="0 0 44 56" fill="none" xmlns="http://www.w3.org/2000/svg">
<path d="M18.5269 19.6667V51.4197C18.5269 52.9846 16.8108 53.9433 15.4782 53.1228L3.95135 46.025C3.36011 45.661 3 45.0163 3 44.322V14.3561C3 12.8266 4.64694 11.8632 5.98014 12.6127L18.5269 19.6667ZM18.5269 19.6667L24.9024 23.4502C25.5095 23.8105 25.8817 24.4642 25.8817 25.1701V36.6121C25.8817 38.1426 27.5306 39.1059 28.8638 38.3544L39.9821 32.0875C40.611 31.733 41 31.0671 41 30.3452V16.0449C41 15.3283 40.6166 14.6664 39.9949 14.3099L21.5218 3.71728C20.1884 2.95274 18.5269 3.91532 18.5269 5.45229V19.6667Z" stroke="#3A3A3A" stroke-width="5"/>
</svg>
